<svg viewBox="0 0 375 93" class="Logo_logo__t4vYb" xmlns="http://www.w3.org/2000/svg"><g transform="translate(0, -47)"><path fill="currentColor" d="M338.463,82.034c8.532-11.045,13.856-15.78,19.4-16.186,3.812-.271,6.919,1.539,7.154,5.581a8.192,8.192,0,0,1-5.844,8.356c-1.915-2.571-4.115-3.857-6.5-3.688-2.687.2-5.34,2.03-9.337,6.478l9.572,15.747c1.831,2.96,3.863,4.364,6.147,4.195a5.48,5.48,0,0,0,3.544-1.5c.319,4.617-4.266,9.015-9.993,9.421-5.156.372-7.877-1.37-10.933-6.563L335.02,92.656a38.569,38.569,0,0,0-2.6,3.958l-3.426,13.971-12.512.9,6.4-26.673a20.85,20.85,0,0,1-8.263,3.214c0,13.446-10.01,25.286-22.421,26.182-10.5.745-17.87-5.683-18.609-16.068a26.206,26.206,0,0,1,.773-8.372,20.909,20.909,0,0,1-5.106,1.522c0,13.447-10.009,25.286-22.421,26.183-6.247.439-11.369-1.658-14.661-5.616-4.82,4.77-11.169,7.476-15.6,7.8-7.726.558-11.555-4.567-9.489-13.329l3.258-13.666c.89-3.738-.655-6.613-3.813-6.393-1.814.135-3.224.727-5.307,2.418a29.789,29.789,0,0,1-.621,4.685l-6.533,26.961-12.512.9,6.516-27.249c.806-3.551-.554-6.342-3.9-6.1a8.06,8.06,0,0,0-4.753,1.978l-7.793,32.086-12.512.9.773-3.2c-3.561,2.892-7.1,4.617-10.346,4.854-5.257.372-8.8-2.165-9.69-6.647-2.57,4.144-7.424,7.594-11.622,7.9a10.662,10.662,0,0,1-10.463-5.92c-4.787,4.854-10.514,7.729-15.3,8.068-4.854.355-8.146-1.624-9.506-5.125-4.316,4.025-8.834,6.461-13.133,6.765-4.72.355-7.944-1.522-9.372-4.837-4.232,3.839-8.649,6.157-12.68,6.444-8.028.575-11.79-5.057-9.791-13.413L54.953,88.8l12.7-.914-7.272,29.921c-.823,3.247.487,5.48,3.258,5.277,1.579-.118,3.494-1,6-2.858a18.351,18.351,0,0,1,.521-4.094L82.076,66.541l12.7-.913L82.529,116.217c-.823,3.248.487,5.48,3.074,5.294,2-.135,3.947-1.116,6.667-3.23a18.413,18.413,0,0,1,.5-3.755L104.7,64.934l12.7-.913L105.152,114.61c-.823,3.248.487,5.48,3.073,5.294,2.3-.169,4.535-1.42,7.944-4.262a20.521,20.521,0,0,1-.537-3.518c-1.075-15.29,8.515-28.855,21.027-29.752a12.708,12.708,0,0,1,9.707,2.977L147.1,82.2l12.7-.913-7.272,29.921c-.823,3.349.487,5.564,2.871,5.395,1.629-.118,3.494-.93,5.929-2.858L169.358,80.6l12.613-.913-1.26,5.125c3.46-4.025,7.121-6.41,10.849-6.681a8.355,8.355,0,0,1,9.1,6.5c3.863-4.922,8.179-7.747,12.193-8.034,7.557-.541,12.294,5.4,10.245,14.343l-3.678,15.645c-.723,3.146.386,5.277,3.056,5.091,2.1-.152,4.216-1.218,7.306-3.788a20.149,20.149,0,0,1-1.5-6.411C227.3,87.514,237.712,74.88,251,73.916c9.085-.66,15.854,4.076,17.768,12.161.185,0,.387-.017.571-.034a15.183,15.183,0,0,0,8.448-3.89,24.41,24.41,0,0,1,18.592-11.5c9.086-.659,15.854,4.076,17.768,12.161.185,0,.387-.017.571-.034,3.359-.253,6.953-2.232,10.044-5.4l6.9-28.8,12.613-.914-9.506,39.173c.665-.893,1.363-1.793,2.161-2.821l.005-.006,0,0,0-.005,0,0c.468-.6.969-1.249,1.519-1.964ZM139.648,114.475a22.942,22.942,0,0,1,.537-3.332l4.451-18.588a6.786,6.786,0,0,0-5.106-1.573c-6.785.49-12.411,9.218-11.773,18.064.336,4.82,2.755,7.831,6.769,7.543A8.466,8.466,0,0,0,139.648,114.475ZM240.013,101.62c.369,5.091,2.956,7.815,7.07,7.51,6.114-.44,11.219-9.692,10.514-19.214v-.1a9.469,9.469,0,0,1-5.324-7.358,9.6,9.6,0,0,0-1.73-.068c-6.113.44-11.2,9.709-10.53,19.231Zm45.362-3.264c.37,5.091,2.956,7.814,7.071,7.51,6.113-.44,11.219-9.709,10.513-19.214v-.1a9.468,9.468,0,0,1-5.324-7.357,9.5,9.5,0,0,0-1.73-.068C289.792,79.565,284.7,88.834,285.375,98.356ZM56.178,82.8c9.17-.659,15.5-6.14,15.082-11.924a6.452,6.452,0,0,0-7.071-6.157c-3.728.271-6.818,3.975-6.533,8.017a6.477,6.477,0,0,0,3.258,5.278c-5.773.325-11.9-2.483-18.485-5.5-7.8-3.58-16.268-7.461-25.584-6.792C6.248,66.473-.537,73.729.034,81.73c.319,4.431,2.452,7.56,6.029,9.235-.521-7.409,2.351-12.736,9.909-13.278,3.443-.253,8.1.474,13.167,1.556L14.191,139.017l15-1.083,13.587-56A59.841,59.841,0,0,0,56.178,82.8ZM371.5,104.851a1.573,1.573,0,0,0-1.612-1.607h-1.646v4.6H369v-1.387h.756l.84,1.387h.856l-.907-1.506A1.553,1.553,0,0,0,371.5,104.851Zm-1.612.93H369v-1.86h.89a.869.869,0,0,1,.857.93A.86.86,0,0,1,369.885,105.781Zm-.2-4.516A4.347,4.347,0,1,0,374,105.612,4.33,4.33,0,0,0,369.685,101.265Zm0,7.967A3.637,3.637,0,1,1,373.3,105.6,3.618,3.618,0,0,1,369.685,109.232Z"/></g></svg>